<?xml version="1.0" encoding="UTF-8"?>
<!DOCTYPE svg PUBLIC "-//W3C//DTD SVG 1.1//EN" "http://www.w3.org/Graphics/SVG/1.1/DTD/svg11.dtd">
<!-- Creator: CorelDRAW 2020 (64-Bit) -->
<svg xmlns="http://www.w3.org/2000/svg" xml:space="preserve" width="3.68906in" height="0.912835in" version="1.1" style="shape-rendering:geometricPrecision; text-rendering:geometricPrecision; image-rendering:optimizeQuality; fill-rule:evenodd; clip-rule:evenodd"
viewBox="0 0 3689.06 912.84"
 xmlns:xlink="http://www.w3.org/1999/xlink"
 xmlns:xodm="http://www.corel.com/coreldraw/odm/2003">
 <defs>
  <style type="text/css">
   <![CDATA[
    .fil0 {fill:#252441;fill-rule:nonzero}
   ]]>
  </style>
 </defs>
 <g id="Layer_x0020_1">
  <metadata id="CorelCorpID_0Corel-Layer"/>
  <path class="fil0" d="M338.78 85.13l127.91 0 0 445.1 -127.91 0 0 -52.65c-11.04,18.24 -28.51,33.13 -52.91,44.43 -24.41,11.3 -50.34,16.95 -78.34,16.95 -38.27,0 -73.2,-10.27 -105.04,-31.08 -31.85,-20.54 -56.76,-48.55 -75,-84.24 -18.24,-35.44 -27.48,-74.23 -27.48,-116.35 0,-64.46 20.03,-118.93 60.36,-163.86 40.32,-44.7 89.37,-67.04 147.17,-67.04 27.48,0 53.68,5.65 78.08,17.2 24.39,11.56 42.12,26.2 53.16,44.17l0 -52.65 0 0.01zm-103 332.61c21.32,0 41.61,-5.14 60.36,-15.41 18.75,-10.27 32.88,-23.63 42.63,-39.81l0 -108.9c-9.76,-16.69 -23.88,-30.56 -42.63,-41.1 -18.74,-10.53 -39.04,-15.93 -60.36,-15.93 -31.33,0 -57.53,10.53 -78.85,31.59 -21.32,21.32 -31.85,47.52 -31.85,79.11 0,31.59 10.53,57.79 31.85,78.85 21.32,21.07 47.51,31.59 78.85,31.59l0 -0zm320.28 -332.61l127.91 0 0 445.1 -127.91 0 0 -445.1zm452.82 -8.74c22.85,0 40.83,2.57 54.45,7.96l-7.45 119.69c-18.75,-6.68 -37.76,-10.02 -57.02,-10.02 -15.93,0 -33.65,6.17 -52.91,18.24 -19.27,12.33 -33.91,28.77 -43.92,49.05l0 268.91 -127.91 0 0 -445.1 127.91 0 0 52.65c10.27,-18.24 25.94,-33.13 46.75,-44.43 20.8,-11.3 40.83,-16.95 60.1,-16.95l0.01 -0zm555.29 8.74l-184.15 445.1 -108.65 0 -184.92 -445.1 138.69 0 100.43 271.22 98.89 -271.22 139.72 0zm52.14 0l127.91 0 0 445.1 -127.91 0 0 -445.1zm393.99 453.84c-80.91,0 -147.42,-18.49 -199.56,-55.74l38.27 -88.87c41.86,31.33 91.95,47 150.25,47 19.78,0 35.7,-3.34 47.77,-10.27 11.81,-6.68 17.72,-15.41 17.72,-25.94 0,-9.25 -4.36,-16.95 -13.35,-23.12 -8.99,-5.9 -20.54,-10.79 -34.68,-14.38 -14.13,-3.34 -29.8,-6.93 -47,-10.79 -17.2,-3.59 -34.16,-8.48 -51.36,-14.64 -17.2,-5.9 -32.62,-13.61 -46.75,-22.61 -14.13,-8.99 -25.68,-21.58 -34.68,-38.01 -8.99,-16.18 -13.87,-35.44 -14.13,-57.53 -0.76,-41.87 15.93,-77.06 49.57,-105.31 33.65,-28.26 76.53,-42.38 128.68,-42.38 70.63,0 127.14,16.95 169.52,50.86l-36.21 92.46c-17.73,-13.35 -39.56,-24.41 -64.99,-33.39 -25.42,-8.74 -50.09,-13.1 -73.72,-13.1 -16.18,0 -29.02,3.34 -39.04,10.02 -10.02,6.93 -15.15,15.41 -15.15,25.42 0,7.45 3.6,14.13 10.53,20.03 6.94,5.9 16.18,10.53 27.74,13.87 11.3,3.59 24.14,7.45 38.78,11.81 14.64,4.36 29.28,8.48 44.43,12.58 15.15,4.11 30.06,9.76 44.7,17.2 14.64,7.45 27.48,15.67 39.04,24.92 11.56,9.5 20.8,21.58 28,36.73 7.19,15.15 11.04,32.11 11.3,51.36 0,41.36 -16.44,75.26 -49.31,101.71 -32.88,26.72 -75,40.07 -126.37,40.07l-0.01 0.03zm539.65 -453.84l127.91 0 0 445.1 -127.91 0 0 -52.65c-12.59,18.75 -29.8,33.65 -51.37,44.7 -21.83,11.04 -44.95,16.69 -69.87,16.69 -56.25,0 -100.69,-17.98 -132.78,-53.94 -32.36,-35.96 -48.55,-85.53 -48.55,-148.46l0 -251.45 127.91 0 0 230.64c0,30.31 7.7,53.94 23.12,70.63 15.41,16.69 36.47,25.17 62.93,25.17 17.46,0 34.16,-4.63 50.34,-13.61 16.18,-8.99 28.77,-21.06 38.27,-36.22l0 -276.61 0.01 0zm537.05 0l127.91 0 0 445.1 -127.91 0 0 -52.65c-11.04,18.24 -28.51,33.13 -52.9,44.43 -24.41,11.3 -50.34,16.95 -78.34,16.95 -38.27,0 -73.2,-10.27 -105.05,-31.08 -31.85,-20.54 -56.76,-48.55 -75,-84.24 -18.24,-35.44 -27.48,-74.23 -27.48,-116.35 0,-64.46 20.03,-118.93 60.36,-163.86 40.32,-44.7 89.38,-67.04 147.17,-67.04 27.48,0 53.68,5.65 78.08,17.2 24.39,11.56 42.12,26.2 53.16,44.17l0 -52.65 0 0.01zm-102.99 332.61c21.32,0 41.61,-5.14 60.36,-15.41 18.74,-10.27 32.87,-23.63 42.63,-39.81l0 -108.9c-9.76,-16.69 -23.88,-30.56 -42.63,-41.1 -18.74,-10.53 -39.04,-15.93 -60.36,-15.93 -31.33,0 -57.53,10.53 -78.85,31.59 -21.32,21.32 -31.85,47.52 -31.85,79.11 0,31.59 10.53,57.79 31.85,78.85 21.32,21.07 47.51,31.59 78.85,31.59l0 -0zm448.19 -417.74l0 530.23 -127.91 0 0 -530.23 127.91 0zm173.63 538.97c-22.87,0 -42.38,-7.96 -58.56,-23.63 -16.18,-15.67 -24.14,-34.93 -24.14,-57.53 0,-22.34 7.96,-41.61 24.14,-57.28 16.18,-15.67 35.7,-23.38 58.56,-23.38 23.37,0 42.89,7.7 59.07,23.12 16.18,15.67 24.14,34.67 24.14,57.28 0,22.87 -7.96,42.12 -24.14,57.79 -16.18,15.67 -35.7,23.63 -59.07,23.63z"/>
  <path class="fil0" d="M1655.9 912.83c26.68,0 52.51,-13.04 65.56,-37.96l-10.94 -5.97c-11.03,20.2 -32.07,31.22 -54.03,31.22 -32.4,0 -65.39,-23.81 -65.39,-67.16 0,-43.93 32.99,-67.66 65.39,-67.66 21.96,0 43.01,10.94 54.03,31.14l10.94 -5.89c-13.05,-25 -38.89,-38.04 -65.56,-38.04 -39.56,0 -78.69,28.78 -78.69,80.45 0,51.08 39.13,79.87 78.69,79.87l0 0zm309.94 -160.33c-28.2,0 -44.26,17.84 -50.5,38.04l0 -35 -13.63 0 0 154.34 13.63 0 0 -84.92c0,-37.37 22.89,-59.67 50.75,-59.67 3.28,0 5.39,0.25 7.49,0.59l0 -12.46c-1.85,-0.58 -4.21,-0.93 -7.74,-0.93l0 0zm251.46 0c-38.54,0 -75.66,28.2 -75.66,79.87 0,52.01 37.11,80.45 77.76,80.45 23.48,0 46.04,-9.51 60.25,-27.02l-7.99 -7.99c-11.27,14.22 -29.96,22.3 -50.74,22.3 -33.92,0 -63.88,-21.96 -66.24,-62.7l136 0c4.46,-56.13 -34.17,-84.92 -73.39,-84.92zm0 12.79c31.47,0 60,21.97 61.18,60.59l-123.54 0c2.69,-39.81 31.81,-60.59 62.36,-60.59zm322.98 147.54c29.45,0 54.37,-15.99 64.46,-38.54l0.83 0 0 35.59 13.72 0 0 -154.34 -13.72 0 0 35.59 -0.83 0c-10.11,-22.56 -35.01,-38.63 -64.46,-38.63 -39.13,0 -76.83,27.94 -76.83,80.2 0,52.27 37.7,80.12 76.83,80.12l0 0.01zm1.18 -12.71c-31.72,0 -64.13,-21.96 -64.13,-67.41 0,-45.44 32.4,-67.41 64.13,-67.41 31.81,0 64.46,22.3 64.46,67.41 0,45.11 -32.65,67.41 -64.46,67.41zm320.37 -132.71l0 -11.87 -29.7 0 0 -39.56 -13.63 0 0 39.56 -19.28 0 0 11.87 19.28 0 0 119.59c0,16.91 10.35,24.66 26.43,24.66 5.3,0 10.94,-0.85 16.33,-4.12l0 -11.61c-5.97,2.69 -10.44,3.28 -13.97,3.28 -10.11,0 -15.15,-5.05 -15.15,-15.41l0 -116.39 29.7 0 0 0.01zm181.69 -54.03l13.63 0 0 -14.31 -13.63 0 0 14.31zm0 196.52l13.63 0 0 -154.34 -13.63 0 0 154.34zm256.76 0l12.21 0 66.15 -154.34 -14.48 0 -57.9 135.92 -57.65 -135.92 -14.56 0 66.24 154.34 -0 0zm315.04 -157.38c-38.54,0 -75.66,28.2 -75.66,79.87 0,52.01 37.11,80.45 77.76,80.45 23.48,0 46.04,-9.51 60.26,-27.02l-7.99 -7.99c-11.27,14.22 -29.96,22.3 -50.75,22.3 -33.92,0 -63.88,-21.96 -66.24,-62.7l136 0c4.46,-56.13 -34.17,-84.92 -73.39,-84.92l-0 0zm0 12.79c31.47,0 60,21.97 61.19,60.59l-123.55 0c2.69,-39.81 31.81,-60.59 62.36,-60.59z"/>
 </g>
</svg>
