<?xml version="1.0" encoding="UTF-8"?>
<!DOCTYPE svg PUBLIC "-//W3C//DTD SVG 1.1//EN" "http://www.w3.org/Graphics/SVG/1.1/DTD/svg11.dtd">
<!-- Creator: CorelDRAW 2020 (64-Bit) -->
<svg xmlns="http://www.w3.org/2000/svg" xml:space="preserve" width="3.68906in" height="0.912823in" version="1.1" style="shape-rendering:geometricPrecision; text-rendering:geometricPrecision; image-rendering:optimizeQuality; fill-rule:evenodd; clip-rule:evenodd"
viewBox="0 0 3668.71 907.79"
 xmlns:xlink="http://www.w3.org/1999/xlink"
 xmlns:xodm="http://www.corel.com/coreldraw/odm/2003">
 <defs>
  <style type="text/css">
   <![CDATA[
    .fil0 {fill:#FEFEFE;fill-rule:nonzero}
   ]]>
  </style>
 </defs>
 <g id="Layer_x0020_1">
  <metadata id="CorelCorpID_0Corel-Layer"/>
  <g id="_2968275517696">
   <path class="fil0" d="M336.91 84.66l127.2 0 0 442.65 -127.2 0 0 -52.36c-10.98,18.14 -28.35,32.95 -52.62,44.19 -24.27,11.24 -50.06,16.86 -77.91,16.86 -38.06,0 -72.8,-10.21 -104.46,-30.91 -31.67,-20.43 -56.45,-48.28 -74.59,-83.78 -18.14,-35.25 -27.33,-73.82 -27.33,-115.71 0,-64.11 19.92,-118.27 60.03,-162.96 40.1,-44.45 88.88,-66.67 146.36,-66.67 27.33,0 53.38,5.62 77.65,17.11 24.26,11.5 41.89,26.06 52.87,43.93l0 -52.36zm-102.43 330.78c21.2,0 41.38,-5.11 60.03,-15.32 18.65,-10.21 32.7,-23.5 42.4,-39.59l0 -108.3c-9.71,-16.6 -23.75,-30.39 -42.4,-40.87 -18.64,-10.47 -38.82,-15.84 -60.03,-15.84 -31.16,0 -57.21,10.47 -78.42,31.42 -21.2,21.2 -31.67,47.26 -31.67,78.67 0,31.42 10.47,57.47 31.67,78.42 21.2,20.95 47.25,31.42 78.42,31.42zm318.52 -330.78l127.2 0 0 442.65 -127.2 0 0 -442.65zm450.32 -8.69c22.73,0 40.61,2.56 54.15,7.92l-7.41 119.03c-18.65,-6.64 -37.55,-9.96 -56.71,-9.96 -15.84,0 -33.46,6.13 -52.62,18.14 -19.16,12.26 -33.72,28.61 -43.68,48.78l0 267.43 -127.2 0 0 -442.65 127.2 0 0 52.36c10.21,-18.14 25.8,-32.95 46.49,-44.19 20.69,-11.24 40.61,-16.86 59.77,-16.86zm552.23 8.69l-183.14 442.65 -108.05 0 -183.9 -442.65 137.93 0 99.87 269.73 98.34 -269.73 138.95 0zm51.85 0l127.2 0 0 442.65 -127.2 0 0 -442.65zm391.82 451.34c-80.46,0 -146.61,-18.39 -198.46,-55.43l38.06 -88.38c41.63,31.16 91.44,46.74 149.42,46.74 19.67,0 35.5,-3.32 47.51,-10.21 11.75,-6.64 17.62,-15.32 17.62,-25.8 0,-9.2 -4.34,-16.86 -13.28,-22.99 -8.94,-5.87 -20.43,-10.73 -34.49,-14.3 -14.05,-3.32 -29.63,-6.89 -46.74,-10.73 -17.11,-3.57 -33.97,-8.43 -51.08,-14.56 -17.11,-5.87 -32.44,-13.54 -46.49,-22.48 -14.05,-8.94 -25.54,-21.46 -34.49,-37.8 -8.94,-16.09 -13.79,-35.25 -14.05,-57.21 -0.76,-41.64 15.84,-76.63 49.3,-104.73 33.46,-28.1 76.11,-42.15 127.97,-42.15 70.24,0 126.44,16.86 168.58,50.58l-36.01 91.95c-17.63,-13.28 -39.34,-24.27 -64.63,-33.21 -25.28,-8.69 -49.81,-13.03 -73.31,-13.03 -16.09,0 -28.86,3.32 -38.82,9.96 -9.96,6.89 -15.07,15.32 -15.07,25.28 0,7.41 3.58,14.05 10.47,19.92 6.9,5.87 16.09,10.47 27.59,13.79 11.24,3.57 24.01,7.41 38.57,11.75 14.56,4.34 29.12,8.43 44.19,12.51 15.07,4.09 29.89,9.71 44.45,17.11 14.56,7.41 27.33,15.58 38.82,24.78 11.5,9.45 20.69,21.46 27.84,36.53 7.15,15.07 10.98,31.93 11.24,51.08 0,41.13 -16.35,74.84 -49.04,101.15 -32.7,26.57 -74.59,39.85 -125.67,39.85zm536.68 -451.34l127.2 0 0 442.65 -127.2 0 0 -52.36c-12.52,18.65 -29.63,33.46 -51.09,44.45 -21.71,10.98 -44.7,16.6 -69.48,16.6 -55.94,0 -100.13,-17.88 -132.05,-53.64 -32.18,-35.76 -48.28,-85.06 -48.28,-147.64l0 -250.06 127.2 0 0 229.37c0,30.14 7.66,53.64 22.99,70.24 15.33,16.6 36.27,25.03 62.58,25.03 17.37,0 33.97,-4.6 50.06,-13.54 16.09,-8.94 28.61,-20.94 38.06,-36.02l0 -275.09zm534.09 0l127.2 0 0 442.65 -127.2 0 0 -52.36c-10.98,18.14 -28.35,32.95 -52.61,44.19 -24.27,11.24 -50.06,16.86 -77.91,16.86 -38.06,0 -72.8,-10.21 -104.47,-30.91 -31.67,-20.43 -56.45,-48.28 -74.59,-83.78 -18.14,-35.25 -27.33,-73.82 -27.33,-115.71 0,-64.11 19.92,-118.27 60.03,-162.96 40.1,-44.45 88.89,-66.67 146.36,-66.67 27.33,0 53.38,5.62 77.65,17.11 24.26,11.5 41.89,26.06 52.87,43.93l0 -52.36zm-102.42 330.78c21.2,0 41.38,-5.11 60.03,-15.32 18.64,-10.21 32.69,-23.5 42.4,-39.59l0 -108.3c-9.71,-16.6 -23.75,-30.39 -42.4,-40.87 -18.64,-10.47 -38.82,-15.84 -60.03,-15.84 -31.16,0 -57.21,10.47 -78.42,31.42 -21.2,21.2 -31.67,47.26 -31.67,78.67 0,31.42 10.47,57.47 31.67,78.42 21.2,20.95 47.25,31.42 78.42,31.42zm445.72 -415.44l0 527.31 -127.2 0 0 -527.31 127.2 0zm172.67 536c-22.74,0 -42.15,-7.92 -58.24,-23.5 -16.09,-15.58 -24.01,-34.74 -24.01,-57.21 0,-22.22 7.92,-41.38 24.01,-56.96 16.09,-15.58 35.5,-23.25 58.24,-23.25 23.24,0 42.65,7.66 58.74,22.99 16.09,15.58 24.01,34.48 24.01,56.96 0,22.74 -7.92,41.89 -24.01,57.47 -16.09,15.58 -35.5,23.5 -58.74,23.5z"/>
   <path class="fil0" d="M1646.77 907.79c26.53,0 52.22,-12.97 65.2,-37.75l-10.88 -5.94c-10.97,20.09 -31.89,31.05 -53.73,31.05 -32.22,0 -65.03,-23.68 -65.03,-66.79 0,-43.69 32.81,-67.29 65.03,-67.29 21.84,0 42.77,10.88 53.73,30.97l10.88 -5.86c-12.98,-24.86 -38.67,-37.83 -65.2,-37.83 -39.34,0 -78.25,28.62 -78.25,80.01 0,50.8 38.92,79.43 78.25,79.43zm308.23 -159.44c-28.04,0 -44.02,17.74 -50.22,37.83l0 -34.81 -13.56 0 0 153.49 13.56 0 0 -84.45c0,-37.16 22.76,-59.34 50.47,-59.34 3.26,0 5.36,0.25 7.45,0.59l0 -12.39c-1.84,-0.58 -4.19,-0.92 -7.7,-0.92zm250.07 0c-38.33,0 -75.24,28.04 -75.24,79.43 0,51.72 36.91,80.01 77.33,80.01 23.35,0 45.78,-9.46 59.92,-26.87l-7.95 -7.95c-11.21,14.14 -29.8,22.18 -50.46,22.18 -33.73,0 -63.53,-21.84 -65.87,-62.35l135.25 0c4.44,-55.82 -33.98,-84.45 -72.98,-84.45zm0 12.72c31.3,0 59.67,21.85 60.84,60.26l-122.86 0c2.68,-39.59 31.64,-60.26 62.02,-60.26zm321.2 146.72c29.29,0 54.07,-15.9 64.11,-38.33l0.83 0 0 35.4 13.64 0 0 -153.49 -13.64 0 0 35.4 -0.83 0c-10.05,-22.43 -34.82,-38.42 -64.11,-38.42 -38.92,0 -76.41,27.79 -76.41,79.76 0,51.98 37.49,79.68 76.41,79.68zm1.17 -12.64c-31.55,0 -63.78,-21.84 -63.78,-67.04 0,-45.19 32.22,-67.04 63.78,-67.04 31.64,0 64.11,22.18 64.11,67.04 0,44.86 -32.47,67.04 -64.11,67.04zm318.61 -131.98l0 -11.8 -29.54 0 0 -39.34 -13.56 0 0 39.34 -19.17 0 0 11.8 19.17 0 0 118.93c0,16.82 10.29,24.52 26.28,24.52 5.27,0 10.88,-0.84 16.24,-4.1l0 -11.55c-5.94,2.68 -10.38,3.26 -13.89,3.26 -10.05,0 -15.07,-5.02 -15.07,-15.32l0 -115.75 29.54 0zm180.69 -53.73l13.56 0 0 -14.23 -13.56 0 0 14.23zm0 195.43l13.56 0 0 -153.49 -13.56 0 0 153.49zm255.34 0l12.14 0 65.78 -153.49 -14.4 0 -57.58 135.17 -57.33 -135.17 -14.48 0 65.87 153.49zm313.3 -156.51c-38.33,0 -75.24,28.04 -75.24,79.43 0,51.72 36.91,80.01 77.33,80.01 23.35,0 45.78,-9.46 59.93,-26.87l-7.95 -7.95c-11.21,14.14 -29.8,22.18 -50.47,22.18 -33.73,0 -63.53,-21.84 -65.87,-62.35l135.25 0c4.44,-55.82 -33.98,-84.45 -72.98,-84.45zm0 12.72c31.3,0 59.67,21.85 60.85,60.26l-122.87 0c2.68,-39.59 31.64,-60.26 62.02,-60.26z"/>
  </g>
 </g>
</svg>
